<mxfile host="Electron" modified="2024-03-16T17:36:05.991Z" agent="Mozilla/5.0 (Windows NT 10.0; Win64; x64) AppleWebKit/537.36 (KHTML, like Gecko) draw.io/24.0.4 Chrome/120.0.6099.109 Electron/28.1.0 Safari/537.36" etag="PA3ldAbDKASJg27NcnPJ" version="24.0.4" type="device">
  <diagram name="Страница — 1" id="ltkwKlaeAM0Lb88CwPLm">
    <mxGraphModel dx="662" dy="657" grid="1" gridSize="10" guides="1" tooltips="1" connect="1" arrows="1" fold="1" page="1" pageScale="1" pageWidth="827" pageHeight="1169" math="0" shadow="0">
      <root>
        <mxCell id="0" />
        <mxCell id="1" parent="0" />
        <mxCell id="_ElHZjK5pCYINVzk9Z9Z-1" value="Redi Express" style="shape=umlFrame;whiteSpace=wrap;html=1;pointerEvents=0;recursiveResize=0;container=1;collapsible=0;width=160;" vertex="1" parent="1">
          <mxGeometry x="260" y="210" width="340" height="410" as="geometry" />
        </mxCell>
        <mxCell id="_ElHZjK5pCYINVzk9Z9Z-31" style="edgeStyle=orthogonalEdgeStyle;rounded=0;orthogonalLoop=1;jettySize=auto;html=1;exitX=0.5;exitY=1;exitDx=0;exitDy=0;entryX=0.5;entryY=0;entryDx=0;entryDy=0;dashed=1;fontSize=4;" edge="1" parent="_ElHZjK5pCYINVzk9Z9Z-1" source="_ElHZjK5pCYINVzk9Z9Z-12" target="_ElHZjK5pCYINVzk9Z9Z-30">
          <mxGeometry relative="1" as="geometry" />
        </mxCell>
        <mxCell id="_ElHZjK5pCYINVzk9Z9Z-41" value="&lt;font style=&quot;font-size: 6px;&quot;&gt;extend&lt;/font&gt;" style="edgeLabel;html=1;align=center;verticalAlign=middle;resizable=0;points=[];" vertex="1" connectable="0" parent="_ElHZjK5pCYINVzk9Z9Z-31">
          <mxGeometry x="-0.2152" relative="1" as="geometry">
            <mxPoint as="offset" />
          </mxGeometry>
        </mxCell>
        <mxCell id="_ElHZjK5pCYINVzk9Z9Z-12" value="Открыть чат" style="ellipse;fontSize=7;" vertex="1" parent="_ElHZjK5pCYINVzk9Z9Z-1">
          <mxGeometry x="20" y="52.5" width="80" height="35" as="geometry" />
        </mxCell>
        <mxCell id="_ElHZjK5pCYINVzk9Z9Z-19" value="Просмотр кошелька" style="ellipse;" vertex="1" parent="_ElHZjK5pCYINVzk9Z9Z-1">
          <mxGeometry x="230" y="250" width="140" height="30" as="geometry" />
        </mxCell>
        <mxCell id="_ElHZjK5pCYINVzk9Z9Z-30" value="Позвонить собеседнику" style="ellipse;fontSize=7;" vertex="1" parent="_ElHZjK5pCYINVzk9Z9Z-1">
          <mxGeometry x="7.5" y="110" width="105" height="40" as="geometry" />
        </mxCell>
        <mxCell id="_ElHZjK5pCYINVzk9Z9Z-39" value="Написать сообщение" style="ellipse;" vertex="1" parent="_ElHZjK5pCYINVzk9Z9Z-1">
          <mxGeometry x="-5" y="180" width="170" height="40" as="geometry" />
        </mxCell>
        <mxCell id="_ElHZjK5pCYINVzk9Z9Z-15" style="edgeStyle=orthogonalEdgeStyle;rounded=0;orthogonalLoop=1;jettySize=auto;html=1;exitX=0.5;exitY=0.5;exitDx=0;exitDy=0;exitPerimeter=0;entryX=1;entryY=0.5;entryDx=0;entryDy=0;endArrow=none;endFill=0;" edge="1" parent="1" source="_ElHZjK5pCYINVzk9Z9Z-3" target="_ElHZjK5pCYINVzk9Z9Z-12">
          <mxGeometry relative="1" as="geometry" />
        </mxCell>
        <mxCell id="_ElHZjK5pCYINVzk9Z9Z-3" value="Заказчик" style="shape=umlActor;verticalLabelPosition=bottom;verticalAlign=top;html=1;outlineConnect=0;" vertex="1" parent="1">
          <mxGeometry x="635" y="250" width="30" height="60" as="geometry" />
        </mxCell>
        <mxCell id="_ElHZjK5pCYINVzk9Z9Z-13" style="edgeStyle=orthogonalEdgeStyle;rounded=0;orthogonalLoop=1;jettySize=auto;html=1;exitX=0.5;exitY=0.5;exitDx=0;exitDy=0;exitPerimeter=0;shadow=1;textShadow=1;endArrow=none;endFill=0;" edge="1" parent="1" source="_ElHZjK5pCYINVzk9Z9Z-4" target="_ElHZjK5pCYINVzk9Z9Z-12">
          <mxGeometry relative="1" as="geometry" />
        </mxCell>
        <mxCell id="_ElHZjK5pCYINVzk9Z9Z-4" value="Курьер" style="shape=umlActor;verticalLabelPosition=bottom;verticalAlign=top;html=1;outlineConnect=0;" vertex="1" parent="1">
          <mxGeometry x="195" y="250" width="30" height="60" as="geometry" />
        </mxCell>
        <mxCell id="_ElHZjK5pCYINVzk9Z9Z-8" value="Неавторизованный&amp;nbsp;&lt;div&gt;пользователь&lt;/div&gt;" style="shape=umlActor;verticalLabelPosition=bottom;verticalAlign=top;html=1;outlineConnect=0;" vertex="1" parent="1">
          <mxGeometry x="680" y="570" width="30" height="60" as="geometry" />
        </mxCell>
        <mxCell id="_ElHZjK5pCYINVzk9Z9Z-20" value="Открыть кошелек" style="ellipse;" vertex="1" parent="1">
          <mxGeometry x="30" y="380" width="140" height="30" as="geometry" />
        </mxCell>
        <mxCell id="_ElHZjK5pCYINVzk9Z9Z-21" value="Просмотр кошелька" style="ellipse;" vertex="1" parent="1">
          <mxGeometry x="30" y="470" width="140" height="30" as="geometry" />
        </mxCell>
        <mxCell id="_ElHZjK5pCYINVzk9Z9Z-22" style="edgeStyle=orthogonalEdgeStyle;rounded=0;orthogonalLoop=1;jettySize=auto;html=1;entryX=0.507;entryY=1.133;entryDx=0;entryDy=0;entryPerimeter=0;dashed=1;" edge="1" parent="1" source="_ElHZjK5pCYINVzk9Z9Z-21" target="_ElHZjK5pCYINVzk9Z9Z-20">
          <mxGeometry relative="1" as="geometry" />
        </mxCell>
        <mxCell id="_ElHZjK5pCYINVzk9Z9Z-23" value="include" style="edgeLabel;html=1;align=center;verticalAlign=middle;resizable=0;points=[];" vertex="1" connectable="0" parent="_ElHZjK5pCYINVzk9Z9Z-22">
          <mxGeometry x="-0.0573" relative="1" as="geometry">
            <mxPoint as="offset" />
          </mxGeometry>
        </mxCell>
        <mxCell id="_ElHZjK5pCYINVzk9Z9Z-24" value="обязатиельно включает действие" style="text;html=1;align=center;verticalAlign=middle;resizable=0;points=[];autosize=1;strokeColor=none;fillColor=none;" vertex="1" parent="1">
          <mxGeometry y="350" width="210" height="30" as="geometry" />
        </mxCell>
        <mxCell id="_ElHZjK5pCYINVzk9Z9Z-25" value="Просмотр кошелька" style="ellipse;" vertex="1" parent="1">
          <mxGeometry x="30" y="645" width="140" height="30" as="geometry" />
        </mxCell>
        <mxCell id="_ElHZjK5pCYINVzk9Z9Z-26" style="edgeStyle=orthogonalEdgeStyle;rounded=0;orthogonalLoop=1;jettySize=auto;html=1;entryX=0.507;entryY=1.133;entryDx=0;entryDy=0;entryPerimeter=0;dashed=1;" edge="1" source="_ElHZjK5pCYINVzk9Z9Z-25" target="_ElHZjK5pCYINVzk9Z9Z-28" parent="1">
          <mxGeometry relative="1" as="geometry" />
        </mxCell>
        <mxCell id="_ElHZjK5pCYINVzk9Z9Z-27" value="extend" style="edgeLabel;html=1;align=center;verticalAlign=middle;resizable=0;points=[];" vertex="1" connectable="0" parent="_ElHZjK5pCYINVzk9Z9Z-26">
          <mxGeometry x="-0.0573" relative="1" as="geometry">
            <mxPoint as="offset" />
          </mxGeometry>
        </mxCell>
        <mxCell id="_ElHZjK5pCYINVzk9Z9Z-28" value="Открыть кошелек" style="ellipse;" vertex="1" parent="1">
          <mxGeometry x="30" y="555" width="140" height="30" as="geometry" />
        </mxCell>
        <mxCell id="_ElHZjK5pCYINVzk9Z9Z-29" value="Дополнительное действие" style="text;html=1;align=center;verticalAlign=middle;resizable=0;points=[];autosize=1;strokeColor=none;fillColor=none;" vertex="1" parent="1">
          <mxGeometry x="20" y="525" width="170" height="30" as="geometry" />
        </mxCell>
      </root>
    </mxGraphModel>
  </diagram>
</mxfile>
